<?xml version="1.0" encoding="utf-8"?>
<!-- Generator: Adobe Illustrator 22.1.0, SVG Export Plug-In . SVG Version: 6.00 Build 0)  -->
<svg version="1.1" xmlns="http://www.w3.org/2000/svg" xmlns:xlink="http://www.w3.org/1999/xlink" x="0px" y="0px"
	 viewBox="0 0 2500 1500" style="enable-background:new 0 0 2500 1500;" xml:space="preserve">
<style type="text/css">
	.st0{fill:none;stroke:#606060;stroke-width:4;stroke-miterlimit:10;}
	.st1{fill:#96CDFD;}
	.st2{fill:#F2F3E5;}
	.st3{fill:#1091BF;}
	.st4{fill:#FDDAB4;}
	.st5{fill:#938672;}
	.st6{fill:#99130D;}
	.st7{fill:#BA2D1F;}
	.st8{fill:#EC2601;}
	.st9{fill:#FD5349;}
	.st10{fill:#F9C123;}
	.st11{fill:#006FAB;}
	.st12{fill:#003E67;}
	.st13{fill:#D2D3C1;}
	.st14{fill:#C9E4F9;}
</style>
<g id="Sketch">
	<path class="st0" d="M982.2,1029.2c27-20.5,60.1-42.1,92.4-31.7c-16.2,42.9-51.1,75.6-85.5,106
		c-159.7,141.1-331.5,268.5-512.8,380.5c2.9-1.9-7.4-31.2-6-36.7c2.5-10.2,11.4-14.9,18.7-21.9c21.2-20.5,44.3-39.4,66.6-58.7
		c45.5-39.2,91.9-77.5,138.8-115.1C788.8,1175.6,885.5,1102.4,982.2,1029.2z"/>
	<path class="st0" d="M688.4,1000.2c7.2-4.5,14.7-9.1,23.1-9.9c8.4-0.8,18,3.3,20.4,11.4c3,9.9-5.3,19.4-13,26.3
		c-134.3,122.3-278.6,233.6-430.9,332.5c-15,9.7-75.9,61.5-93.8,51.3c-19.4-11-4.5-49.6,4.9-61.9c25.3-32.9,73.5-59,106.5-84.2
		c37.5-28.6,75.4-56.7,113.7-84.3C507.1,1118.3,596.8,1057.8,688.4,1000.2z"/>
	<path class="st0" d="M218.9,1394.2c24.2-35.1,28.5-79.8,32.1-122.4c6.5-77.4,13.1-154.8,19.6-232.2c5.9-70.1,22.7-148.7,17.3-218.3
		c-22.9,28.3-23.4,81.1-29.3,115.8c-8.7,50.6-15.9,101.5-21.8,152.5c-5.8,51-10.3,102.2-13.3,153.5c-1.5,26.1-2.7,52.3-3.5,78.5
		C219.7,1335.9,226.8,1383.2,218.9,1394.2z"/>
	<path class="st0" d="M586.6,1407.9c-0.7,14.3,0.1,31.4,12.4,38.8c11,6.7,26.1,1,34.1-9.2c7.9-10.1,10.4-23.4,12.5-36.1
		c15.6-95.5,21.4-192.2,22.5-288.9c0.5-48.5-0.2-96.9-1.4-145.4c-0.8-32.4,9.2-101-7.2-127.5c-32.1,15.2-28.6,76.5-32.3,105.6
		c-6.7,51.9-12.6,103.8-17.9,155.9C598.9,1203.1,591.4,1305.4,586.6,1407.9z"/>
	<path class="st0" d="M208.9,1280.4c117.5,8.9,235,17.7,352.6,26.6c9.7,0.7,20,1.7,27.4,8c7.4,6.3,9,19.9,0.7,24.9
		c-3.8,2.3-8.5,2.2-12.9,2c-142.4-5.3-284.8-10.7-427.2-16"/>
	<path class="st0" d="M666.5,1406.2c-101.7-219.5-239.3-420.1-376.2-619.5c-41.9-61-86-126.4-149.2-167.5
		c-18.5-12-67.8-26.1-46.4,7.2c6.4,9.9,22.9,17.1,31.2,26.1c14.5,15.9,26,36,38.5,53.5c107.1,149.4,214.3,298.9,321.4,448.3
		C546.1,1238.3,606.3,1322.3,666.5,1406.2z"/>
	<path class="st0" d="M427.1,590.2c206.3,280,417.9,555.9,634.8,827.7c12-9.5,14.8-27.2,10.7-42c-4-14.8-13.6-27.3-23-39.4
		c-127.6-164.2-266-320.9-375.3-497.8c-34.6-56-66.2-114-105.3-166.9c-27.1-36.7-58-71.1-94.4-98.8c-10.3-7.8-37.4-33-52-28.6
		C401.1,551,418.1,578,427.1,590.2z"/>
	<path class="st0" d="M442.2,557.1c3.7,4.1,1.9,11.2-2.3,14.8c-4.2,3.6-10,4.7-15.5,5.7c-47.9,8.4-95.7,16.7-143.6,25.1
		c-33.5,5.9-94.2,28.4-125.7,19.1c10.5-39.5,85.3-35.1,116.6-39.7c28.4-4.2,56.8-8.3,85.2-12.5C367,568.1,437,551.3,442.2,557.1z"/>
	<path class="st0" d="M586.6,937.2c31.1,66.8,63.4,134.2,111.9,189.7c22.8,26,53.9,50.8,88.1,46.2c24.2-3.3,43.9-20.6,61.9-37.1
		c46.9-43,93.8-86,140.7-129c-99.5-7-198.9-14-298.4-21c-24.6-1.7-50-3.4-73.3,4.7c-40.1,13.9-64.8,52.8-92.1,85.3
		c-25.3,30.2-59.9,58.4-99.1,55.4c-41.4-3.1-71.7-39.3-94.5-74c-87.1-132.8-138.1-286.4-222.6-420.9c3.9,6.2,133.4-32.1,146.6-35.3
		c46.4-11.2,102-34.6,149.5-36c35.9-1.1,31.9,40.6,44.5,69.5c20.5,46.9,41.6,93.6,62.7,140.3C536.9,829.3,561.5,883.4,586.6,937.2z"
		/>
	<path class="st0" d="M348.2,1073c45,65.3,113.5,114.2,189.9,135.5s160.3,15,232.7-17.5c-58.3-34-113-74.1-163-119.5"/>
	<path class="st0" d="M1406,1036c105.7-52.5,231.3-29.2,348.9-39.3c84-7.2,169.6-34.4,229.2-94.1c20.8-20.8,39.6-46.3,67.8-54.8
		c21.3-6.4,45.1-2,65.5-10.7c46.6-19.9,48-93.1,93.1-116.2c21.6-11,48.5-7.6,70-18.8c46.3-24.2,41.9-98.9,85.7-127.3
		c21.1-13.8,48.1-13,73.1-16.7c24.9-3.7,52.8-16.4,57.8-41.1"/>
	<path class="st0" d="M1023.5,1048.3c-103.4-46.7-209.4-94-322.4-102.8c-55.5-4.3-114,0.4-164.1-23.8
		c-74-35.6-106.4-120.8-150.7-190C303.5,602.3,158.1,514.8,4.9,502.4"/>
	<path class="st0" d="M1632.6,1170.8c275.9-19,553-21.2,829.2-6.6"/>
	<path class="st0" d="M1602.5,1120.1c-187.9-4.1-375.9-7-563.9-8.9"/>
	<path class="st0" d="M1259.2,1182.5c-173.7-46.7-357.2-24.1-536.9-18.1c-146.5,4.9-293.4-1.5-439-19.2"/>
	<path class="st0" d="M-8.4,1257.9c864.1-18,1728.9-3.2,2591.8,44.2c-8.7-0.6-17.4-1.2-26.1-1.8"/>
	<path class="st0" d="M2550.2,1054.1c-862.7,28.7-1726.3,32.3-2589.3,10.9"/>
</g>
<g id="BG">
</g>
<g id="Main">
	<rect class="st1" width="2500" height="1500"/>
	<g>
		<path class="st2" d="M723.8,1063.8c0,0,16.1-74.6-51.7-93.9c-67.8-19.3-114.5,0.8-128.8-13.9c-14.3-14.7,8.6-46.5-17.5-65.8
			c-26.2-19.3-75.3,0.4-86-19.3c-10.6-19.6,29.8-137.2-95.7-216.7s-215.5-13.1-230.8-23.9c-15.3-10.8-36-73.3-65.5-91.5
			C18.4,520.7,0,533.5,0,533.5v530L723.8,1063.8z"/>
		<path class="st2" d="M1647,1063.6c0,0,48.9-57.1,93-45.7c44,11.4,56.9,7.8,68.3,1.1c11.4-6.8,13.7-31.4,36-41.9
			c28.9-13.5,50.6-0.1,60.2-5.6c11.3-6.5,8.6-66.4,98.5-90.8c89.9-24.4,129.5,29.3,153.8,23.3s19.9-39.9,59.3-55.7
			c39.3-15.8,63.6,6.5,76.6,0c13-6.5-8.2-140.2,73.4-184.3s133.8-19.6,133.8-19.6v419.1H1647z"/>
	</g>
	<rect y="1063.6" class="st3" width="2500" height="436.4"/>
	<path class="st2" d="M66.8,1146.9h677c0,0-44.5,18.9-81.4,18.9c-36.9,0-53.4-8.1-74.5-8.1c-21,0-40.3,8.1-73.6,8.1
		c-33.3,0-55.8-9.4-65.5-9.4s-21.5,3.6-36.4,4.3c-14.9,0.7-26.2-4.3-40.4-4.3s-37.6,9.4-63.4,9.4c-25.8,0-26.4-8.1-41.7-8.1
		c-15.3,0-42.4,7.5-65.4,8.1c-23,0.6-19.4-9.4-29.6-9.4c-10.2,0-12.1,4.8-21.6,4.9c-9.5,0.1-9.7-4.4-18.6-4.4
		c-8.9,0-19.6,6.4-38.4,6.1C74.6,1162.6,66.8,1146.9,66.8,1146.9z"/>
	<path class="st2" d="M975.9,1186.7h231.7c0,0-4.8,12-16.5,12.2c-11.7,0.2-27.1-5-33.5-5c-6.4,0-27,7.7-41.3,7.2s-23.8-6.3-33.3-6.3
		c-9.5,0-9.9,6.2-26,6.2s-30.7-7.2-39.5-7.2c-8.8,0-15.9,3.2-25.2,3.3C984.6,1197.3,975.9,1186.7,975.9,1186.7z"/>
	<path class="st2" d="M1939.1,1163.3h503.1c0,0-44.5,26-81.4,26s-53.4-11.2-74.5-11.2s-40.3,11.2-73.6,11.2c-33.3,0-55.8-13-65.5-13
		s-21.5,5-36.4,6c-14.9,1-26.2-6-40.4-6c-14.2,0-37.6,13-63.4,13s-26.8-14.7-41.7-11.2C1953.8,1180.7,1939.1,1163.3,1939.1,1163.3z"
		/>
	<rect y="1234.2" class="st4" width="2500" height="265.8"/>
	<path class="st5" d="M1116.1,1439.3c5.8,12.6-456.5,60.7-456.5,60.7H0v-65.9l661.2-21.5C661.2,1412.6,1110.3,1426.6,1116.1,1439.3z
		"/>
	<g>
		<g>
			<path class="st6" d="M207.9,1371L207.9,1371c-10.7-2.8-17.8-12.9-16.9-23.9l42-492.7c1.1-12.7,12.4-22,25.1-20.6l1,0.1
				c12.2,1.4,21.1,12.2,20.1,24.5l-43,492.6C235,1365,221.5,1374.5,207.9,1371z"/>
		</g>
		<g>
			<path class="st7" d="M220.4,1377.4L220.4,1377.4c-10.7-2.8-17.8-12.9-16.9-23.9l42-492.7c1.1-12.7,12.4-22,25.1-20.6l1,0.1
				c12.2,1.4,21.1,12.2,20.1,24.5l-43,492.6C247.5,1371.4,234,1381,220.4,1377.4z"/>
		</g>
		<g>
			<path class="st8" d="M136.5,1415.5L136.5,1415.5c-6.8-11.1-4.2-25.5,6-33.5l471.2-372.5c11.4-9,28-6.8,36.6,4.9l4.3,5.9
				c8.3,11.2,6,27-5,35.5l-468.1,374.9C169.4,1440,144.5,1428.5,136.5,1415.5z"/>
		</g>
		<g>
			<path class="st9" d="M149.1,1421.9L149.1,1421.9c-6.8-11.1-4.2-25.5,6-33.5l471.2-372.5c11.4-9,28-6.8,36.6,4.9l4.3,5.9
				c8.3,11.2,6,27-5,35.5l-475.5,366.6C174.5,1438.1,157,1434.9,149.1,1421.9z"/>
		</g>
		<polygon class="st8" points="281.6,1355.6 274.6,1293.3 218.4,1338.5 222.8,1400.9 		"/>
		<g>
			<path class="st10" d="M1044.8,1052.9l-380.1,10.8c-15.9,0.6-29.4-11.5-30.6-27.4l0,0c-1.2-16.6,11.4-30.9,28-31.7l379.9-15.7
				c17.4-0.9,32.3,12.3,33.6,29.6v0C1077,1036.7,1063,1052.3,1044.8,1052.9z"/>
		</g>
		<path class="st11" d="M838.7,1181.6c41.1-17.3,228.8-182.3,228.8-182.3s-6.1-11.2-25.5-10.4c-19.4,0.8-379.9,15.7-379.9,15.7
			l-203.9,167.6C458.2,1172.2,741.6,1222.5,838.7,1181.6z"/>
		<g>
			<g>
				<path class="st2" d="M1024.6,989.6c0,0-79.8,62.3-157.8,115.4c-65.1,44.3-117.5,75-158.1,92.6c-21.6-0.3-43.9-1.3-65.8-2.8
					l-0.2-15.3c19.2-0.3,71.2-14.1,203.7-104.1c46-31.3,88.4-62.7,115.2-83.1c17.4-0.7,33-1.4,45.8-1.9L1024.6,989.6z"/>
			</g>
			<g>
				<path class="st2" d="M895.5,995c-24.4,18.8-75.2,57.2-131.2,95.4c-75,51-133.1,84-175.7,99.7c-17-1.8-33.3-3.7-48.1-5.6
					l-0.3-19.7c19.2-0.3,71.2-14.1,203.7-104.1c32.8-22.3,63.7-44.7,88.5-63.1C853.4,996.7,874.8,995.8,895.5,995z"/>
			</g>
			<g>
				<path class="st2" d="M766.7,1000.3c-27,20.3-64.6,47.9-104.9,75.3c-76.7,52.1-135.7,85.5-178.5,100.7c-15.8-2.5-25-4.1-25-4.1
					l65.5-53.8c29.6-15.6,68-38.7,117.7-72.5c21.6-14.7,42.4-29.4,61.2-43C720,1002.2,742.2,1001.3,766.7,1000.3z"/>
			</g>
		</g>
		<g>
			<g>
				<g>
					<path class="st8" d="M620.4,1402.5L81.7,628.7c-6.3-9.1-5.4-21.4,2.2-29.5v0c10.2-10.8,30.8-11.1,39.3,1l540.8,771.6
						c8.6,12.1,9.4,32.3-2.9,40.8l1.9,3.4C651,1424.3,628.7,1414.5,620.4,1402.5z"/>
				</g>
			</g>
		</g>
		<g>
			<g>
				<g>
					<path class="st9" d="M632.9,1408.9L90.1,628.7c-6.3-9.1-5.4-21.4,2.2-29.5l0,0c10.2-10.8,27.7-9.5,36.2,2.6l548.1,776.5
						c8.6,12.1,5.6,29-6.7,37.4h0C657.8,1424,641.3,1421,632.9,1408.9z"/>
				</g>
			</g>
		</g>
		<path class="st8" d="M669.9,1415.6c-4.6,3.2-9.9,4.7-15.1,4.7c-8.4,0-16.7-4-21.9-11.4l-151.1-217.2l66.5,4.8l128.3,181.8
			C685.2,1390.4,682.2,1407.2,669.9,1415.6z"/>
		<path class="st12" d="M439.8,565c0,0,156.1,443,235.7,544.8c82.6,105.5,163.2,71.9,163.2,71.9s-280.8,87.9-424-19.6
			C281.1,1061.7,130,616.4,130,616.4L439.8,565z"/>
		<g>
			<g>
				<path class="st13" d="M760.8,1200.3c-17.4,3.3-36.9,6.6-57.8,9.2C635.9,1160,560,1049,476.8,878.7
					C405.3,732.1,354.1,593,353.6,591.6l33.8-12.4c0.5,1.4,51.1,139,121.9,283.9c92.2,188.9,176,304.3,242.1,333.6
					C754.6,1198.2,757.7,1199.4,760.8,1200.3z"/>
			</g>
			<g>
				<path class="st2" d="M617.7,1227L617.7,1227C617.7,1227,617.7,1227,617.7,1227L617.7,1227z"/>
				<path class="st13" d="M657.5,1208.2c4.6,2,9,3.6,13.4,4.8c-22.3,1.9-45.7,2.9-69.2,2.4c-65.3-52.1-138.7-161.1-218.8-325.2
					C311.4,743.5,260.3,604.4,259.8,603l33.8-12.4c0.5,1.4,51.1,139,121.9,284C507.7,1063.5,591.4,1178.8,657.5,1208.2z"/>
			</g>
			<g>
				<path class="st13" d="M544.3,1210.8c-25.5-3.6-50.3-9.5-73.6-18.4c-54.7-59.8-114.3-155.7-178.2-286.6
					C221,759.2,169.8,620.1,169.3,618.7l33.8-12.4c0.5,1.4,51.1,139,121.9,283.9C406.9,1058.1,482.1,1167.8,544.3,1210.8z"/>
				<path class="st2" d="M617.7,1227C617.7,1227,617.7,1227,617.7,1227L617.7,1227L617.7,1227z"/>
			</g>
		</g>
		<g>
			<path class="st7" d="M428.4,594l-300.6,49.1c-14.9,2.4-28.7-8.5-29.8-23.5l0,0c-1-13.2,8.2-25,21.2-27.3l300.3-53.1
				c15-2.7,29,8.2,30.2,23.5l0.3,4C451,580,441.6,591.9,428.4,594z"/>
		</g>
		<path class="st7" d="M436.4,591.3c-2.4,1.3-5.1,2.2-7.9,2.7l-300.6,49.1c-14.9,2.4-28.7-8.5-29.8-23.5c0-0.7-0.1-1.3-0.1-1.9
			c0-12.4,8.9-23.1,21.3-25.3c-9.3,7.5-11.4,15.9-6.5,25.1l321.3-55.7L436.4,591.3z"/>
		<g>
			<g>
				<path class="st8" d="M466.7,1472.2L466.7,1472.2c-8.2-12.4-5.1-29.9,6.8-39.6l542.3-439c13.7-11.1,42.5-6.4,53.2,6.8l-5.3,8.1
					c11.6,14.3,4.3,25.4-10.8,37.3l-538.1,439.8C502.1,1495.6,475.3,1485.3,466.7,1472.2z"/>
			</g>
		</g>
		<g>
			<path class="st9" d="M478.8,1477.9L478.8,1477.9c-8.2-12.4-5.1-29.9,6.8-39.6l542.3-439c13.7-11.1,32.9-9.5,43.5,3.7v0
				c11.6,14.3,8.7,36.6-6.4,48.5l-547.2,432C505.1,1493.6,487.4,1491,478.8,1477.9z"/>
		</g>
		<polygon class="st8" points="568.4,1371.4 564.4,1446.7 620.4,1402.5 611.2,1336.7 		"/>
		<polygon class="st8" points="821.7,1143.6 843.5,1128 880.6,1179.3 836.9,1210 		"/>
		<g>
			<g>
				<g>
					<path class="st8" d="M1046.7,1424.9L402.3,576.2c-8.3-11-5-25.3,4.8-35l0,0c11.7-11.5,37-10.4,47,2.7l642.7,842.6
						c11.5,14.9,14.4,42.3-1.6,52.1l-2.7,1C1078.7,1448.1,1056.6,1437.8,1046.7,1424.9z"/>
				</g>
			</g>
		</g>
		<g>
			<g>
				<path class="st9" d="M1059.3,1431.3L410.9,577.5c-8.3-11-7.2-26.5,2.6-36.2l0,0c11.7-11.5,30.9-10.2,40.9,2.8l655,848.7
					c11.5,14.9,7.5,36.4-8.5,46.2v0C1087.1,1447.6,1069.1,1444.2,1059.3,1431.3z"/>
			</g>
		</g>
		<g>
			<g>
				<path class="st7" d="M573.8,1368.4l-335.7-45c-13.3-1.8-24.1-13.2-25.1-26.5h0c-1.1-15.4,11.2-27.2,26.6-25.3l335.9,40.4
					c14.6,1.8,26.6,14.3,27.7,28.9v0C604.5,1357.8,590.8,1370.6,573.8,1368.4z"/>
			</g>
			<path class="st7" d="M598.6,1358.1c-4.7,6.6-12.5,10.7-21.6,10.5c-1.1,0-2.1-0.1-3.2-0.3l-335.7-45
				c-13.3-1.8-24.1-13.2-25.1-26.5c-1.1-14.6,9.9-25.9,24.1-25.5c0.8,0,1.7,0.1,2.6,0.2l0.5,0.1c-24.4,9.3-12.9,37.1-12.9,37.1
				L598.6,1358.1z"/>
		</g>
		<g>
			<g>
				<path class="st6" d="M613.1,1404.5l-20.1,5.3c-13.5-3.3-30.6-21.5-29.2-35.6l53.3-548.3c1.5-15.5,16.3-30.3,31.4-28.9l1.3,0.1
					c15.7,0.7,36.6,10.5,36.9,32.2l-68,550.8C617.1,1397.2,629.4,1408.5,613.1,1404.5z"/>
			</g>
			<g>
				<g>
					<path class="st7" d="M597.5,1411.3L597.5,1411.3c-13.5-3.3-22.5-16.4-21.1-30.5l53.9-554.7c1.5-15.5,14.9-26.8,30-25.3l1.3,0.1
						c15.3,1.5,26.6,15.5,25,31.3l-55.3,554.6C629.7,1403.8,613.8,1415.4,597.5,1411.3z"/>
				</g>
			</g>
		</g>
		<g>
			
				<ellipse transform="matrix(0.2348 -0.972 0.972 0.2348 -841.028 1621.9226)" class="st14" cx="609.7" cy="1345.1" rx="10" ry="10"/>
		</g>
		<g>
			
				<ellipse transform="matrix(0.8661 -0.4999 0.4999 0.8661 -331.0048 439.8162)" class="st14" cx="655.4" cy="837.7" rx="10" ry="10"/>
		</g>
		<g>
			<path class="st14" d="M449.8,564.7c0.1,5.5-4.2,10.1-9.8,10.3c-5.5,0.1-10.1-4.2-10.3-9.8c-0.1-5.5,4.2-10.1,9.8-10.3
				S449.7,559.2,449.8,564.7z"/>
		</g>
		<g>
			
				<ellipse transform="matrix(0.9791 -0.2033 0.2033 0.9791 -213.9279 202.886)" class="st14" cx="880.6" cy="1142.8" rx="10" ry="10"/>
		</g>
		<path class="st11" d="M838.7,1181.6c-0.4,0.2-3.6,1.4-9,2.6C835.1,1182.7,838.3,1181.7,838.7,1181.6z"/>
	</g>
	<path class="st2" d="M1342.7,1119.9h504.1c0,0-18.3,8.1-40.5,8.7s-50-3.3-56.7-3.3s-7.3,2-17.2,2.3c-9.9,0.3-14.4-2.6-27.9-2.3
		c-13.4,0.3-34.2,5.4-55.1,5.4s-38.6-5.4-46.1-5.4s-7.5,3-15.1,3.2c-7.7,0.1-7-3.2-17.9-3.2c-10.9,0-28.9,3.3-45.1,3.2
		s-23.6-4.2-31.7-4.1c-8.1,0.1-8.4,2.5-17.2,2.6c-8.8,0.1-6.5-3.3-14.1-3.1c-7.6,0.2-10.7,2.5-25.6,2.6s-13.3-3-26.3-2.8
		s-22.2,6.3-39.2,6.3S1342.7,1119.9,1342.7,1119.9z"/>
</g>
</svg>
