<svg xmlns="http://www.w3.org/2000/svg" viewBox="0 0 32 32"><title>search android app aplication phone</title><g id="search_android_app_aplication_phone" data-name="search android app aplication phone"><path fill="#E58411" d="M16,31A15,15,0,1,1,31,16,15,15,0,0,1,16,31ZM16,3A13,13,0,1,0,29,16,13,13,0,0,0,16,3Z"/><path fill="#fff" d="M14,21a7,7,0,1,1,7-7A7,7,0,0,1,14,21ZM14,9a5,5,0,1,0,5,5A5,5,0,0,0,14,9Z"/><path fill="#fff" d="M22.29,23.71l-3-3a1,1,0,0,1,1.42-1.42l3,3a1,1,0,0,1-1.42,1.42Z"/></g></svg>